{"title":"Vikings S02E04 HDTV x264 AAC E-Subs [GWC].mp4","uid":9802913,"size":139150491,"categoryP":"video","categoryS":"tv_shows","magnet":"?xt=urn:btih:3fabfe63318872fc3ae9aac596c82c6dc8fb8971&amp;dn=Vikings+S02E04+HDTV+x264+AAC+E-Subs+%5BGWC%5D.mp4&amp;tr=udp%3A%2F%2Ftracker.openbittorrent.com%3A80&amp;tr=udp%3A%2F%2Fopen.demonii.com%3A1337&amp;tr=udp%3A%2F%2Ftracker.coppersurfer.tk%3A6969&amp;tr=udp%3A%2F%2Fexodus.desync.com%3A6969","seeders":24,"leechers":2,"uploader":"canc232","files":1,"time":1395410454,"description":"Vikings S02E04 HDTV x264 AAC E-Subs [GWC]\n\n\nSTORYLINE :\nVikings follows the adventures of Ragnar Lothbrok: the greatest hero of his age. The series tells the saga of Ragnar's band of Viking brothers and his family as he rises to become King of the Viking tribes. As well as being a fearless warrior, Ragnar embodies the Norse traditions of devotion to the gods: legend has it that he was a direct descendant of Odin, the god of war and warriors.\n\n\nSCREENS : &lt;a href=&quot;\nhttp://i.imgur.com/BTGg8Wc.jpg&quot; rel=&quot;nofollow&quot; target=&quot;_NEW&quot;&gt;\nhttp://i.imgur.com/BTGg8Wc.jpg&lt;/a&gt; &lt;a href=&quot;\nhttp://i.imgur.com/5pH9GMP.jpg&quot; rel=&quot;nofollow&quot; target=&quot;_NEW&quot;&gt;\nhttp://i.imgur.com/5pH9GMP.jpg&lt;/a&gt; &lt;a href=&quot;\nhttp://i.imgur.com/3hv2269.jpg&quot; rel=&quot;nofollow&quot; target=&quot;_NEW&quot;&gt;\nhttp://i.imgur.com/3hv2269.jpg&lt;/a&gt;\n\nMEDIA INFO :\nGeneral \nFormat : MPEG-4 \nFormat profile : Base Media \nFile size : 133 MiB \nDuration : 44mn 1s \nOverall bit rate : 421 Kbps \n\nVideo \nFormat : AVC \nFormat profile : &lt;a class=&quot;__cf_email__&quot; href=&quot;/cdn-cgi/l/email-protection&quot; data-cfemail=&quot;347c5d535c7478071a04&quot;&gt;[email&amp;#160;protected]&lt;/a&gt;&lt;script cf-hash='f9e31' type=&quot;text/javascript&quot;&gt;\n/* &lt;![CDATA[ */!function(){try{var t=&quot;currentScript&quot;in document?document.currentScript:function(){for(var t=document.getElementsByTagName(&quot;script&quot;),e=t.length;e--;)if(t[e].getAttribute(&quot;cf-hash&quot;))return t[e]}();if(t&amp;&amp;t.previousSibling){var e,r,n,i,c=t.previousSibling,a=c.getAttribute(&quot;data-cfemail&quot;);if(a){for(e=&quot;&quot;,r=parseInt(a.substr(0,2),16),n=2;a.length-n;n+=2)i=parseInt(a.substr(n,2),16)^r,e+=String.fromCharCode(i);e=document.createTextNode(e),c.parentNode.replaceChild(e,c)}}}catch(u){}}();/* ]]&gt; */&lt;/script&gt; \nFormat settings, CABAC : Yes \nFormat settings, ReFrames : 4 frames \nDuration : 44mn 1s \nBit rate : 358 Kbps \nWidth : 720 pixels \nHeight : 404 pixels \nDisplay aspect ratio : 16:9 \nFrame rate : 23.976 fps \nStream size : 113 MiB (85%) \nTitle : Vikings S02E04 HDTV x264 AAC E-Subs [GWC] \nWriting library : x264 core\n\nAudio \nFormat : AAC \nFormat profile : HE-AAC / LC \nDuration : 44mn 1s \nBit rate mode : Variable \nChannel(s) : 2 channels \nSampling rate : 48.0 KHz / 24.0 KHz \nStream size : 18.9 MiB (14%) \nLanguage : English \n\nText \nFormat : Timed Text \nCodec ID : tx3g \nTitle : English Subtitle by wilson0804 \nLanguage : English ","torrent":{"xt":"urn:btih:3fabfe63318872fc3ae9aac596c82c6dc8fb8971","amp;dn":"Vikings+S02E04+HDTV+x264+AAC+E-Subs+%5BGWC%5D.mp4","amp;tr":["udp%3A%2F%2Ftracker.openbittorrent.com%3A80","udp%3A%2F%2Fopen.demonii.com%3A1337","udp%3A%2F%2Ftracker.coppersurfer.tk%3A6969","udp%3A%2F%2Fexodus.desync.com%3A6969"],"infoHash":"3fabfe63318872fc3ae9aac596c82c6dc8fb8971","infoHashBuffer":{"type":"Buffer","data":[63,171,254,99,49,136,114,252,58,233,170,197,150,200,44,109,200,251,137,113]},"announce":[],"urlList":[]}}